<?xml version="1.0" encoding="UTF-8"?>
<!DOCTYPE svg PUBLIC "-//W3C//DTD SVG 1.1//EN" "http://www.w3.org/Graphics/SVG/1.1/DTD/svg11.dtd">
<svg version="1.1" xmlns="http://www.w3.org/2000/svg" xmlns:xlink="http://www.w3.org/1999/xlink" x="0" y="0" width="286.243" height="407.158" viewBox="0, 0, 572.486, 814.316">
  <g id="Layer_1" transform="translate(-42, -42)">
    <g id="bf">
      <path d="M155.16,542.102 C152.038,527.602 137.352,525.604 127.161,517.178 C124.113,514.658 119.277,511.329 118.597,507.102 C117.526,500.452 126.899,491.279 129.16,485.102 L131.16,485.102 L145.16,514.102 C161.3,500.728 151.657,477.051 143.298,462.102 C140.438,456.987 134.214,451.248 134.507,445.102 C135.549,423.234 149.173,408.149 162.16,392.102 L174.457,377.102 C177.955,368.894 179.314,356.952 179.11,348.102 C178.979,342.415 177.538,333.285 180.188,328.117 C183.22,322.203 191.752,317.664 197.16,314.102 C192.38,329.051 189.174,347.376 190.25,363.102 L195.055,405.102 C194.139,423.868 182.225,440.766 184.334,460.102 C185.596,471.678 199.589,492.351 211.16,495.102 C211.444,508.882 215.637,522.738 218.661,536.102 C223.636,558.092 228.457,580.6 238.16,601.102 C210.127,609.215 182.478,617.848 163.004,640.102 C156.441,647.602 146.918,661.564 148.16,672.102 C137.247,678.073 128.944,695.233 119.16,703.816 C92.194,727.47 41.278,744.55 51.284,789.102 C55.479,807.777 82.11,808.049 97.16,811.098 L122.16,817.415 C132.636,822.137 141.799,829.897 153.16,832.599 C170.58,836.742 185.148,833.024 202.16,831.351 C210.46,830.535 217.85,837.956 226.141,833.645 C237.264,827.862 228.49,814.818 223.117,808.106 C213.214,795.736 190.519,790.015 177.16,781.41 C173.675,779.165 163.362,774.361 165.371,769.091 C167.481,763.559 175.611,759.116 180.16,755.732 L219.16,728.102 L288.445,674.827 C302.111,663.606 315.569,655.237 324.204,639.102 C334.139,620.538 334.773,596.534 333.16,576.102 C350.33,585.136 378.666,596.889 388.935,614.103 C393.147,621.163 393.358,631.105 394.315,639.102 C397.165,662.907 393.015,690.216 399.881,713.102 C406.933,736.605 428.509,751.53 436.461,774.102 C444.025,795.572 432.816,825.342 455.164,841.464 C479.653,859.131 498.192,837.653 521.16,832.495 L550.16,833.063 C560.567,832.59 578.937,824.462 586.511,817.378 L593.469,803.102 C597.865,793.533 603.896,785.738 605.57,775.102 C606.148,771.426 607.802,762.866 604.418,760.13 C597.523,754.555 581.506,765.027 574.16,765.918 L551.16,763.272 L534.179,762.668 L525.102,756.334 L503.16,757.102 C500.06,717.819 493.149,677.905 486.41,639.102 L484.48,620.102 L478.578,602.102 L477.743,588.102 C467.507,565.402 444.85,547.611 429.811,528.102 L400.584,490.102 C395.556,483.648 390.766,475.649 383.16,472.102 C381.593,462.925 365.233,450.289 357.16,446.102 C365.424,434.564 373.12,423.784 373.16,409.102 L392.16,424.106 L414.16,430.555 C430.339,437.094 451.837,450.811 463.73,463.617 C477.916,478.89 468.532,512.011 493.16,521.102 C493.16,510.651 492.641,500.327 495.16,490.102 C511.236,495.242 524.152,499.927 528.594,518.102 C530.009,523.891 510.289,545.989 522.219,547.953 C528.152,548.93 532.917,545.626 538.16,543.566 C563.296,533.69 568.238,505.688 556.631,483.102 C536.896,444.699 498.254,413.194 468.16,383.102 C455.88,370.822 440.113,352.504 423.16,347.102 C435.204,315.88 448.978,275.423 440.399,242.102 C437.431,230.573 429.974,220.616 423.16,211.102 C428.244,212.759 438.674,219.168 443.885,217.394 C447.372,216.208 448.469,210.142 449.493,207.102 L454.986,187.102 L454.933,174.102 C456.189,169.503 463.381,166.38 461.943,161.102 C460.129,154.443 451.741,147.076 447.16,142.102 C467.504,136.116 454.622,121.815 450.16,109.102 C441.189,83.544 427.859,55.216 398.16,50.541 C367.702,45.747 345.634,73.88 326.16,92.013 C311.643,105.53 296.109,108.697 279.16,117.376 L261.16,129.878 C236.815,137.789 208.017,123.677 185.373,141.21 L176.145,151.723 C166.374,159.779 154.943,164.757 146.983,175.102 L139.76,197.102 C123.08,224.918 104.324,256.61 95.803,288.102 L97.102,304.102 L80.881,343.102 C73.926,366.438 71.927,392.003 69.005,416.102 C64.762,451.087 47.793,485.893 71.512,517.827 L83.16,525.237 C105.993,542.645 127.744,541.875 155.16,542.102 z" fill="#263238"/>
      <path d="M394.239,48.093 L398.471,48.565 C412.815,50.823 424.259,58.456 433.531,70.788 C440.826,80.491 446.378,92.289 452.047,108.44 C452.649,110.156 453.418,111.945 454.595,114.449 C454.811,114.91 455.019,115.348 455.361,116.066 C459.261,124.261 460.459,127.554 460.286,131.681 C460.056,137.397 455.717,140.983 450.739,142.948 C452.046,144.307 453.374,145.647 454.676,147.012 C457.702,150.207 459.875,152.827 461.491,155.405 C462.616,157.201 463.42,158.915 463.873,160.576 C464.836,164.111 463.639,166.268 459.913,170.322 C459.907,170.328 459.907,170.328 459.901,170.335 C458.754,171.585 457.551,172.834 456.934,174.441 L456.986,187.094 L456.987,187.368 L456.914,187.632 L451.422,207.632 L451.388,207.74 C451.251,208.147 450.38,211.144 450.05,212.12 C448.749,215.969 447.183,218.385 444.53,219.287 C441.639,220.271 437.964,219.511 432.865,217.445 C431.863,217.04 430.823,216.591 429.585,216.036 C429.173,215.849 429.392,215.948 428.928,215.738 C434.74,223.66 439.583,232.132 442.336,241.603 C446.383,257.324 445.835,275.33 441.469,295.806 C437.821,312.971 432.014,329.573 425.75,345.932 C437.956,350.534 447.702,359.728 456.848,368.723 C459.425,371.289 467.967,380.08 469.574,381.688 C473.726,385.84 478.131,390.116 484.114,395.833 C483.746,395.482 495.871,407.034 499.312,410.344 C529.617,439.49 546.64,459.285 558.41,482.188 C571.334,507.337 563.849,535.622 538.891,545.427 C537.944,545.8 537.131,546.158 535.505,546.902 C534.849,547.203 534.769,547.239 534.499,547.361 C529.194,549.769 525.971,550.598 521.894,549.926 C517.665,549.23 515.875,546.315 516.487,542.191 C516.9,539.405 518.252,536.204 520.759,531.471 C521.058,530.905 521.374,530.317 521.758,529.607 C525.855,522.047 526.924,519.693 526.651,518.577 C524.674,510.489 520.928,504.967 515.087,500.848 C509.535,496.926 503.013,494.808 496.628,492.679 C494.959,500.504 495.095,508.564 495.138,516.521 C495.154,518.801 495.16,519.824 495.16,521.102 L495.16,523.972 L492.467,522.978 C485.404,520.371 480.539,515.789 477.217,509.237 C474.724,504.318 473.408,499.503 471.52,490.019 C471.459,489.71 471.405,489.439 471.29,488.861 C468.608,475.343 466.766,469.824 462.264,464.978 C448.487,451.002 431.531,440.082 413.489,432.443 L391.597,426.025 L391.225,425.916 L390.92,425.676 L374.913,413.035 C374.546,418.902 372.498,424.398 370.036,429.67 C367.305,435.27 363.682,440.359 360.095,445.431 C368.461,450.718 382.308,460.586 384.872,470.738 C390.584,473.582 394.517,478.761 398.297,483.713 C398.491,483.974 400.444,486.613 401.009,487.365 C401.423,487.916 401.8,488.409 402.169,488.883 L431.395,526.881 C434.812,531.313 438.692,535.774 444.162,541.685 C445.121,542.722 446.125,543.8 447.376,545.136 C447.968,545.769 450.147,548.094 450.625,548.604 C466.675,565.751 474.105,575.169 479.566,587.28 L479.717,587.615 L479.739,587.983 L480.559,601.725 L486.38,619.479 L486.448,619.685 L486.47,619.9 L488.393,638.83 C495.105,677.387 501.769,716.002 504.996,755.036 L525.032,754.335 L525.699,754.312 L526.246,754.694 L534.84,760.69 L551.231,761.273 L551.388,761.285 L574.135,763.902 C577.683,763.237 581.026,761.698 584.371,760.38 C585.94,759.761 587.155,759.298 588.344,758.872 C596.436,755.975 601.839,755.473 605.675,758.575 C607.967,760.427 608.667,763.691 608.45,768.137 C608.376,769.663 608.197,771.23 607.919,773.065 C607.827,773.674 607.541,775.442 607.546,775.413 C606.617,781.313 604.664,786.121 600.685,793.537 C600.446,793.982 600.199,794.44 599.878,795.032 C599.818,795.143 599.24,796.209 599.07,796.523 C597.317,799.761 596.29,801.752 595.267,803.978 L588.309,818.254 L588.147,818.586 L587.877,818.839 C579.828,826.368 560.97,834.574 550.251,835.061 L550.121,835.063 L521.379,834.5 C514.814,835.978 508.689,838.856 502.62,841.685 C497.717,843.982 496.457,844.562 494.154,845.543 C478.345,852.284 466.9,852.397 453.994,843.086 C447.149,838.148 442.906,831.762 440.557,823.686 C438.777,817.565 438.195,811.801 437.819,800.903 C437.806,800.505 437.795,800.199 437.771,799.467 C437.333,786.479 436.745,780.928 434.575,774.766 C431.528,766.119 427.403,759.721 417.498,746.801 C417.221,746.44 417.221,746.44 416.944,746.078 C405.636,731.331 401.095,724.109 397.965,713.677 C394.632,702.566 393.687,691.546 393.547,672.053 C393.539,670.922 393.534,670.023 393.523,667.982 C393.448,653.334 393.24,646.95 392.329,639.34 C392.198,638.24 392.085,637.166 391.91,635.403 C391.538,631.643 391.448,630.776 391.227,629.058 C390.44,622.921 389.268,618.565 387.217,615.128 C381.907,606.225 371.439,598.308 355.147,589.559 C348.607,586.118 341.994,582.818 335.398,579.486 C336.88,600.285 335.441,621.164 325.967,640.046 C320.386,650.474 313.591,657.463 300.563,667.765 C299.43,668.662 295.527,671.722 295.165,672.006 C293.008,673.704 291.337,675.04 289.664,676.412 L220.316,729.734 L181.354,757.337 C180.294,758.125 175.927,761.099 175.231,761.593 C170.778,764.755 168.2,767.287 167.24,769.803 C166.621,771.426 168.503,773.698 172.777,776.445 C173.992,777.225 177.775,779.427 178.243,779.729 C181.657,781.927 185.623,783.939 192.064,786.872 C193.118,787.352 197.234,789.208 198.221,789.657 C212.225,796.027 219.545,800.445 224.678,806.856 C228.551,811.694 231.385,816.249 232.727,820.639 C234.677,827.016 233.053,832.306 227.064,835.419 C222.926,837.571 219.112,837.432 213.623,835.738 C213.023,835.553 212.587,835.412 211.469,835.044 C206.896,833.542 204.842,833.097 202.356,833.341 C199.402,833.632 196.768,833.948 192.146,834.545 C185.245,835.436 183.182,835.686 179.831,835.992 C169.62,836.924 161.364,836.606 152.697,834.545 C146.524,833.076 142.095,830.902 132.572,825.311 C132.552,825.3 132.552,825.3 132.533,825.289 C128.932,823.15 125.297,821.064 121.491,819.309 L96.763,813.058 C95.054,812.712 93.168,812.393 90.416,811.971 C90.218,811.941 85.997,811.303 84.719,811.103 C82.454,810.748 80.554,810.426 78.73,810.078 C61.718,806.842 51.951,801.196 49.333,789.54 C45.858,774.072 49.213,760.917 58.552,748.944 C65.675,739.813 74.582,732.674 91.402,721.375 C91.402,721.375 98.392,716.698 100.35,715.372 C108.122,710.108 113.332,706.268 117.841,702.312 C120.765,699.747 123.512,696.514 127.804,690.852 C128.103,690.457 128.416,690.043 128.798,689.536 C129,689.268 129.693,688.347 129.797,688.209 C134.651,682.049 139.218,675.142 146.087,671.016 C145.793,658.761 154.126,647.723 161.499,638.785 C170.771,628.189 182.239,620.107 196.531,613.484 C209.01,607.683 222.206,603.663 235.39,599.825 C228.077,584.001 223.773,567.041 219.8,550.136 C219.076,547.016 218.769,545.662 217.166,538.561 C216.991,537.787 216.848,537.152 216.71,536.543 C216.146,534.052 215.805,532.626 214.505,527.273 C211.429,514.608 210.152,508.298 209.48,500.815 C209.235,497.488 209.306,498.905 209.215,496.567 C196.134,491.69 184.559,473.62 182.346,460.319 C181.32,450.916 182.777,443.872 187.693,428.521 C187.742,428.366 187.742,428.366 187.792,428.212 C190.296,420.696 192.491,413.083 193.047,405.148 L188.255,363.238 C187.481,348.259 189.456,333.038 193.722,318.661 C191.981,319.772 192.698,319.308 191.566,320.045 C186.546,323.363 183.45,326.139 181.968,329.03 C180.903,331.106 180.51,334.235 180.62,338.631 C180.653,339.974 180.72,341.232 180.856,343.332 C181.047,346.271 181.083,346.893 181.109,348.056 C181.346,358.33 179.619,370.09 176.297,377.886 L176.185,378.149 L176.004,378.37 L163.715,393.36 C163.149,394.059 162.562,394.781 161.83,395.68 C161.491,396.096 160.241,397.627 160.346,397.499 C159.75,398.23 159.304,398.777 158.869,399.313 C151.368,408.545 147.258,414.19 143.758,420.586 C139.352,428.64 136.916,436.573 136.505,445.197 C136.371,447.993 137.712,450.671 141.215,455.494 C143.918,459.215 144.205,459.625 145.044,461.126 C150.417,470.735 154.096,479.857 155.393,488.392 C157.106,499.654 154.439,509.01 146.436,515.642 L144.469,517.272 L143.359,514.971 L130.2,487.713 C128.915,490.2 127.293,492.502 125.741,494.828 C124.87,496.131 124.266,497.06 123.701,497.977 C121.275,501.914 120.238,504.712 120.572,506.784 C120.883,508.718 122.44,510.685 125.374,513.151 C126.012,513.688 128.146,515.398 128.435,515.637 C130.767,517.564 133.255,519.128 137.388,521.406 C137.69,521.572 137.999,521.742 138.407,521.966 C138.918,522.245 139.2,522.399 139.43,522.525 C144.831,525.485 147.544,527.209 150.218,529.675 C153.761,532.943 156.064,536.798 157.115,541.681 L157.641,544.123 L155.143,544.102 C153.969,544.092 153.129,544.086 150.915,544.072 C135.473,543.971 128.954,543.732 121.009,542.676 C110.663,541.302 101.735,538.627 93.149,534.054 C89.227,532.019 85.593,529.498 82.036,526.892 L70.438,519.514 L70.127,519.316 L69.906,519.019 C61.251,507.366 57.37,494.788 57.166,480.266 C57.013,469.378 58.347,460.802 62.57,440.631 C65.118,428.461 66.184,422.754 67.02,415.861 C67.41,412.638 67.759,409.627 68.348,404.432 C69.473,394.526 69.819,391.55 70.43,386.706 C72.709,368.648 75.206,355.142 78.964,342.531 L79.034,342.334 L95.069,303.781 L93.81,288.264 L93.781,287.916 L93.872,287.58 C97.853,272.87 104.198,257.418 112.941,240.313 C120.602,225.262 129.258,210.749 137.929,196.266 L145.083,174.478 L145.189,174.153 L145.398,173.882 C149.809,168.15 154.196,164.609 163.931,158.055 C164.564,157.629 164.889,157.41 165.196,157.203 C168.486,155.034 171.678,152.728 174.758,150.271 L183.87,139.891 L183.997,139.746 L184.148,139.629 C190.546,134.675 197.699,131.873 206.086,130.651 C212.421,129.728 217.923,129.695 229.014,130.17 C229.387,130.186 229.387,130.186 229.759,130.202 C236.969,130.345 244.282,131.008 251.468,130.005 C256.198,129.345 256.629,129.123 260.283,128.052 L278.019,115.733 L278.129,115.657 L278.248,115.596 C283.062,113.131 285.207,112.188 295.555,107.817 C309.893,101.761 316.984,97.824 324.797,90.549 C326.785,88.699 328.829,86.72 331.675,83.914 C332.454,83.145 335.211,80.418 335.23,80.399 C336.672,78.974 337.779,77.885 338.869,76.823 C349.381,66.578 357.062,60.196 365.502,55.395 C371.815,51.836 378.661,49.177 385.905,48.317 C388.665,47.99 391.461,48.168 394.239,48.093 z M389.81,50.026 C362.701,52.016 344.519,74.534 326.16,92.013 C311.643,105.53 296.109,108.697 279.16,117.376 L261.16,129.878 C236.815,137.789 208.017,123.677 185.373,141.21 L176.145,151.723 C166.374,159.779 154.943,164.757 146.983,175.102 L139.76,197.102 C123.08,224.918 104.324,256.61 95.803,288.102 L97.102,304.102 L80.881,343.102 C73.926,366.438 71.927,392.003 69.005,416.102 C64.762,451.087 47.793,485.893 71.512,517.827 L83.16,525.237 C105.993,542.645 127.744,541.875 155.16,542.102 C152.038,527.602 137.352,525.604 127.161,517.178 C124.113,514.658 119.277,511.329 118.597,507.102 C117.526,500.452 126.899,491.279 129.16,485.102 L131.16,485.102 L145.16,514.102 C161.3,500.728 151.657,477.051 143.298,462.102 C140.438,456.987 134.214,451.248 134.507,445.102 C135.549,423.234 149.173,408.149 162.16,392.102 L174.457,377.102 C177.955,368.894 179.314,356.952 179.11,348.102 C178.979,342.415 177.538,333.285 180.188,328.117 C183.22,322.203 191.752,317.664 197.16,314.102 C192.38,329.051 189.174,347.376 190.25,363.102 L195.055,405.102 C194.139,423.868 182.225,440.766 184.334,460.102 C185.596,471.678 199.589,492.351 211.16,495.102 C211.444,508.882 215.637,522.738 218.661,536.102 C223.636,558.092 228.457,580.6 238.16,601.102 C210.127,609.215 182.478,617.848 163.004,640.102 C156.441,647.602 146.918,661.564 148.16,672.102 C137.247,678.073 128.944,695.233 119.16,703.816 C92.194,727.47 41.278,744.55 51.284,789.102 C55.479,807.777 82.11,808.049 97.16,811.098 L122.16,817.415 C132.636,822.137 141.799,829.897 153.16,832.599 C170.58,836.742 185.148,833.024 202.16,831.351 C210.46,830.535 217.85,837.956 226.141,833.645 C237.264,827.862 228.49,814.818 223.117,808.106 C213.214,795.736 190.519,790.015 177.16,781.41 C173.675,779.165 163.362,774.361 165.371,769.091 C167.481,763.559 175.611,759.116 180.16,755.732 L219.16,728.102 L288.445,674.827 C302.111,663.606 315.569,655.237 324.204,639.102 C334.139,620.538 334.773,596.534 333.16,576.102 C350.33,585.136 378.666,596.889 388.935,614.103 C393.147,621.163 393.358,631.105 394.315,639.102 C397.165,662.907 393.015,690.216 399.881,713.102 C406.933,736.605 428.509,751.53 436.461,774.102 C444.025,795.572 432.816,825.342 455.164,841.464 C479.653,859.131 498.192,837.653 521.16,832.495 L550.16,833.063 C560.567,832.59 578.937,824.462 586.511,817.378 L593.469,803.102 C597.865,793.533 603.896,785.738 605.57,775.102 C606.148,771.426 607.802,762.866 604.418,760.13 C597.523,754.555 581.506,765.027 574.16,765.918 L551.16,763.272 L534.179,762.668 L525.102,756.334 L503.16,757.102 C500.06,717.819 493.149,677.905 486.41,639.102 L484.48,620.102 L478.578,602.102 L477.743,588.102 C467.507,565.402 444.85,547.611 429.811,528.102 L400.584,490.102 C395.556,483.648 390.766,475.649 383.16,472.102 C381.593,462.925 365.233,450.289 357.16,446.102 C365.424,434.564 373.12,423.784 373.16,409.102 L392.16,424.106 L414.16,430.555 C430.339,437.094 451.837,450.811 463.73,463.617 C477.916,478.89 468.532,512.011 493.16,521.102 C493.16,510.651 492.641,500.327 495.16,490.102 C511.236,495.242 524.152,499.927 528.594,518.102 C530.009,523.891 510.289,545.989 522.219,547.953 C528.152,548.93 532.917,545.626 538.16,543.566 C563.296,533.69 568.238,505.688 556.631,483.102 C536.896,444.699 498.254,413.194 468.16,383.102 C455.88,370.822 440.113,352.504 423.16,347.102 C435.204,315.88 448.978,275.423 440.399,242.102 C437.431,230.573 429.974,220.616 423.16,211.102 C428.244,212.759 438.674,219.168 443.885,217.394 C447.372,216.208 448.469,210.142 449.493,207.102 L454.986,187.102 L454.933,174.102 C456.189,169.503 463.381,166.38 461.943,161.102 C460.129,154.443 451.741,147.076 447.16,142.102 C467.504,136.116 454.622,121.815 450.16,109.102 C441.189,83.544 427.859,55.216 398.16,50.541 C393.503,49.958 396.28,50.214 389.81,50.026 z" fill="#EFEFEF"/>
    </g>
  </g>
</svg>
